<svg fill="none" height="34" viewBox="0 0 127 34" width="127" xmlns="http://www.w3.org/2000/svg"><g fill="#2f2e0c"><path d="m32.9116 7.69122c-2.1633.37786-3.3246 1.20045-4.04 4.98878v-5.11286l-7.0352 2.21158v15.12658h7.7426v-7.9641c0-1.1763.7631-2.2173 1.8839-2.5693l3.0824-.9693v-5.83385s-1.2275.05237-1.6345.12327z"/><path d="m59.5294 7.06607h-.0008c-2.8627 0-4.9428 1.61457-5.9272 3.57473v-3.22588l-7.5238 2.36546v15.12572h7.7426v-10.2216c0-1.5211.8285-2.0681 1.7055-2.0681s1.4859.4858 1.4859 1.7708v10.5189h7.7426v-11.4591c0-4.29504-1.8614-6.38093-5.2248-6.38093z"/><path d="m92.8641 7.00724v.55994h-1.9995v5.37872h1.9995v11.961h7.7429v-11.961h3.332v-5.37872h-3.332v-.54544c0-.99662.806-1.80471 1.8-1.80471h1.532v-4.703527h-4.5953c-3.579 0-6.4796 2.906877-6.4796 6.493737z"/><path d="m36.0021 24.9069h7.7426v-14.3942l-7.7426 2.4331z"/><path d="m43.1179 3.20932c-.7639-.63165-1.9219-.99178-3.2373-.99178-.6388 0-1.2428.0862-1.7831.24895l-.1405.04351c-1.3502.44715-2.2675 1.38656-2.2675 2.63858 0 .13133.0097.25862.0299.3835.2455 1.56623 2.0026 2.54916 4.1612 2.54916 2.3458 0 4.1918-1.14567 4.1918-2.93266 0-.78473-.3553-1.44538-.9545-1.94006z"/><path d="m76.095.349121-7.7426 2.433139v4.7849h-1.9994v5.37864h1.9994v6.24c0 3.1598 2.5558 5.7203 5.7076 5.7203h5.3669v-5.3118h-1.7572c-.8689 0-1.5747-.7058-1.5747-1.5783v-5.071h3.3319v-5.37784h-3.3319z"/><path d="m88.3783 3.20932c-.7639-.63165-1.9227-.99178-3.2382-.99178-.6379 0-1.2428.0862-1.7822.24895l-.1405.04351c-1.351.44715-2.2676 1.38656-2.2676 2.63858 0 .13133.0097.25862.0299.3835.2455 1.56623 2.0027 2.54916 4.1604 2.54916 2.3467 0 4.1919-1.14567 4.1919-2.93266 0-.78473-.3545-1.44538-.9537-1.94006z"/><path d="m81.4238 24.9069h7.7426v-14.3942l-7.7426 2.4331z"/><path d="m118.397 7.56714-2.888 11.21096c-.143.4576-.567.7702-1.047.7702-.303 0-.576-.1224-.775-.3214s-.321-.4738-.321-.7775v-10.88226h-7.511v10.43106c0 1.9691.541 3.9027 1.457 5.1636 1.607 2.2067 5.197 2.5499 7.235.7517l-2.174 9.2306h7.525l6.829-25.57615h-8.33z"/><path d="m13.3509.999256h-13.3509v6.567864h12.3625c.5701 0 1.0691.42378 1.1216.99339.0267.28038-.0533.54545-.2067.75573-.1349.1845-.3271.3271-.5556.398l-12.7218 3.99776v11.194h8.29089v-7.102c1.52462-.4794 3.05161-.9531 4.56981-1.4534 1.8702-.6164 3.8358-1.1255 5.404-2.38 1.628-1.3036 2.4985-3.4789 2.4985-5.54302 0-4.1033-3.3182-7.428324-7.4123-7.428324z"/></g></svg>